HIERARCHY
ROOT root
{
	OFFSET 0.000000 0.000000 0.000000
	CHANNELS 6 Xposition Yposition Zposition Zrotation Yrotation Xrotation
	JOINT lhip
	{
		OFFSET 0.058581 -0.082280 -0.017664
		CHANNELS 3 Zrotation Yrotation Xrotation
		JOINT lknee
		{
			OFFSET 0.043451 -0.386469 0.008037
			CHANNELS 3 Zrotation Yrotation Xrotation
			JOINT lankle
			{
				OFFSET -0.014790 -0.426874 -0.037428
				CHANNELS 3 Zrotation Yrotation Xrotation
				JOINT ltoe
				{
					OFFSET 0.041054 -0.060286 0.122042
					CHANNELS 3 Zrotation Yrotation Xrotation
					End Site
					{
						OFFSET 0.000000 0.000000 0.000000
					}
				}
			}
		}
	}
	JOINT rhip
	{
		OFFSET -0.060310 -0.090513 -0.013543
		CHANNELS 3 Zrotation Yrotation Xrotation
		JOINT rknee
		{
			OFFSET -0.043257 -0.383688 -0.004843
			CHANNELS 3 Zrotation Yrotation Xrotation
			JOINT rankle
			{
				OFFSET 0.019056 -0.420046 -0.034562
				CHANNELS 3 Zrotation Yrotation Xrotation
				JOINT rtoe
				{
					OFFSET -0.034840 -0.062106 0.130323
					CHANNELS 3 Zrotation Yrotation Xrotation
					End Site
					{
						OFFSET 0.000000 0.000000 0.000000
					}
				}
			}
		}
	}
	JOINT lowerback
	{
		OFFSET 0.004439 0.124404 -0.038385
		CHANNELS 3 Zrotation Yrotation Xrotation
		JOINT upperback
		{
			OFFSET 0.004488 0.137956 0.026820
			CHANNELS 3 Zrotation Yrotation Xrotation
			JOINT chest
			{
				OFFSET -0.002265 0.056032 0.002855
				CHANNELS 3 Zrotation Yrotation Xrotation
				JOINT lowerneck
				{
					OFFSET -0.013390 0.211636 -0.033468
					CHANNELS 3 Zrotation Yrotation Xrotation
					JOINT upperneck
					{
						OFFSET 0.010113 0.088937 0.050410
						CHANNELS 3 Zrotation Yrotation Xrotation
						End Site
						{
							OFFSET 0.000000 0.000000 0.000000
						}
					}
				}
				JOINT lclavicle
				{
					OFFSET 0.071702 0.114000 -0.018898
					CHANNELS 3 Zrotation Yrotation Xrotation
					JOINT lshoulder
					{
						OFFSET 0.122921 0.045205 -0.019046
						CHANNELS 3 Zrotation Yrotation Xrotation
						JOINT lelbow
						{
							OFFSET 0.255332 -0.015649 -0.022946
							CHANNELS 3 Zrotation Yrotation Xrotation
							JOINT lwrist
							{
								OFFSET 0.265709 0.012698 -0.007375
								CHANNELS 3 Zrotation Yrotation Xrotation
								End Site
								{
									OFFSET 0.000000 0.000000 0.000000
								}
							}
						}
					}
				}
				JOINT rclavicle
				{
					OFFSET -0.082954 0.112472 -0.023707
					CHANNELS 3 Zrotation Yrotation Xrotation
					JOINT rshoulder
					{
						OFFSET -0.113228 0.046853 -0.008472
						CHANNELS 3 Zrotation Yrotation Xrotation
						JOINT relbow
						{
							OFFSET -0.260127 -0.014369 -0.031269
							CHANNELS 3 Zrotation Yrotation Xrotation
							JOINT rwrist
							{
								OFFSET -0.269108 0.006794 -0.006027
								CHANNELS 3 Zrotation Yrotation Xrotation
								End Site
								{
									OFFSET 0.000000 0.000000 0.000000
								}
							}
						}
					}
				}
			}
		}
	}
}
MOTION
Frames: 7
Frame Time: 0.033333
0.424211 0.229395 1.002377 65.660277 4.638643 95.800283 3.467431 6.477740 -2.832537 2.545261 5.291080 -6.230753 -1.209355 8.808408 -6.416574 0.000000 -0.000000 0.000000 -2.075538 3.771797 -20.148546 -1.140681 4.735349 11.046245 7.355103 -3.111118 -3.218153 0.000000 -0.000000 0.000000 -2.972074 -6.454873 9.375899 11.955877 -11.613594 1.352157 5.628366 -3.955669 -3.173024 -1.351683 -10.967892 7.674952 12.408000 -11.588329 -5.443213 -14.426500 -11.722910 3.934287 -53.081317 -20.411719 32.043362 -32.040051 -68.145324 54.532727 -16.521826 -24.119322 -1.039516 17.119193 -3.925287 -4.506059 46.789404 -15.323608 16.267231 -25.320994 80.813414 -10.270931 -9.582338 10.598498 -1.115544 
0.422607 0.232168 1.003456 64.858046 4.495014 96.094683 2.986897 6.608729 -3.291829 2.608420 5.507139 -6.213187 -1.097052 9.120798 -6.273089 0.000000 -0.000000 0.000000 -2.392850 3.290443 -20.375355 -1.445006 4.211951 10.688113 6.995516 -3.886472 -1.724340 0.000000 -0.000000 0.000000 -2.765133 -6.796903 10.380442 12.719232 -12.444347 0.972195 6.201451 -4.760350 -2.925009 -2.051694 -9.521371 7.452996 12.039233 -10.672301 -5.695142 -13.934466 -14.484378 4.162898 -50.911853 -23.531748 31.357199 -31.094973 -67.063129 53.352427 -15.382141 -24.104685 -0.351516 17.343701 -2.908121 -5.056786 46.358426 -15.383347 15.746219 -32.180455 80.657454 -17.194375 -9.718452 10.056515 -0.571414 
0.421288 0.233993 1.004165 63.857813 4.208351 96.317647 2.436278 6.638064 -3.717020 2.644851 5.733630 -5.956577 -0.820245 9.629383 -6.177716 0.000000 -0.000000 0.000000 -2.808528 2.723299 -20.525714 -1.676469 3.919737 10.431794 6.851854 -4.563934 -0.465578 0.000000 -0.000000 0.000000 -2.571615 -6.997830 11.471100 13.286365 -13.143633 0.649298 6.598521 -5.324748 -2.403986 -2.822493 -8.455749 7.133505 12.080028 -9.443155 -6.304794 -13.053693 -17.243157 4.191322 -49.317006 -26.500137 30.790545 -27.565954 -65.090417 48.890044 -11.646686 -23.281447 -1.423404 17.284013 -1.690583 -5.682673 46.132592 -14.707817 15.250987 -33.894036 80.036676 -19.084210 -10.378429 9.180329 -1.108841 
0.420479 0.234992 1.004589 62.331224 3.927370 96.552695 1.897909 6.802384 -4.052827 2.685760 6.144678 -5.706087 -0.553467 10.351723 -6.137587 0.000000 -0.000000 0.000000 -3.311070 2.376609 -20.579197 -1.509938 4.128196 9.822597 7.169110 -4.668660 0.194674 0.000000 -0.000000 0.000000 -2.084356 -6.971272 12.641846 13.574506 -13.551528 0.491447 6.843227 -5.694497 -1.993303 -3.517744 -7.575582 6.422612 11.849126 -8.130230 -6.767286 -12.336132 -20.039399 4.259660 -47.863366 -28.925003 29.778459 -22.520618 -62.069852 41.966353 -7.058205 -22.027990 -3.420217 17.048742 0.227958 -5.891022 45.941142 -13.320586 14.722782 -31.855208 78.563516 -18.235129 -11.702377 8.553816 -2.276163 
0.419359 0.235098 1.004754 60.257321 3.704213 96.941415 1.474371 7.046575 -4.441229 2.665374 6.950130 -5.562877 -0.292700 11.162259 -5.973167 0.000000 -0.000000 0.000000 -3.696797 2.467347 -20.878876 -1.186340 5.044115 8.722254 8.101798 -4.039688 1.098122 0.000000 -0.000000 0.000000 -1.552099 -6.716461 13.870643 13.745235 -13.608074 0.446455 7.012539 -5.693943 -1.336413 -4.259706 -6.622445 5.493089 11.854656 -7.003980 -7.805907 -11.528857 -22.703919 3.997371 -46.872853 -31.240387 28.404497 -17.482122 -57.729712 34.477269 -2.665412 -20.622773 -5.947082 16.828602 2.432652 -5.866756 45.537389 -11.103565 13.940171 -27.206774 76.714794 -14.484199 -12.840449 8.125600 -3.013765 
0.418246 0.234527 1.005193 58.096187 3.373195 97.621743 0.864010 7.292096 -5.096216 2.732078 7.866530 -5.512991 -0.016625 12.011981 -5.587288 0.000000 -0.000000 0.000000 -4.053913 2.523275 -21.703748 -0.927249 5.932880 7.588746 8.774907 -3.677807 2.368688 0.000000 -0.000000 0.000000 -0.988205 -6.341626 15.128401 13.820062 -13.461233 0.559669 7.229494 -5.412701 -0.916917 -5.354620 -6.202641 4.774734 12.130870 -5.693422 -9.524477 -10.987607 -25.680025 3.868622 -45.729593 -33.451776 26.893227 -13.582666 -52.653911 26.875281 2.485816 -18.511110 -10.916668 16.242333 5.122992 -5.499143 45.059052 -8.547547 12.785261 -22.773584 74.483390 -11.682330 -15.000617 8.252687 -3.643036 
0.417416 0.233549 1.005500 56.290888 2.986377 98.710905 0.090779 7.380498 -6.234352 2.970413 8.708599 -5.388592 0.099718 12.718365 -5.261961 0.000000 -0.000000 0.000000 -4.302746 2.469754 -22.995942 -0.848564 6.682673 6.864216 8.854510 -3.312051 2.986134 0.000000 -0.000000 0.000000 -0.042779 -6.161318 16.210051 13.781698 -13.394372 0.913741 7.291881 -5.230302 -0.667716 -6.292582 -5.628123 3.607282 12.077275 -4.386221 -11.269328 -10.548081 -28.366284 3.426541 -44.620168 -35.554794 24.791568 -9.517360 -47.142589 19.912243 4.761675 -16.734417 -13.163979 15.744221 7.949016 -5.334697 44.196783 -5.130358 11.476910 -20.105861 71.834160 -10.725542 -15.874372 8.337125 -3.734924 
